<svg width="25" height="25" viewBox="0 0 25 25" fill="none" xmlns="http://www.w3.org/2000/svg">
<g clip-path="url(#clip0_976_23752)">
<path d="M23.8112 12.5067C23.8112 11.691 23.745 10.8709 23.6039 10.0684H12.2852V14.6893H18.7669C18.4979 16.1797 17.6337 17.4981 16.3682 18.3359V21.3342H20.2352C22.506 19.2442 23.8112 16.1576 23.8112 12.5067Z" fill="#4285F4"/>
<path d="M12.286 24.2318C15.5225 24.2318 18.2518 23.1691 20.2404 21.3349L16.3735 18.3365C15.2976 19.0685 13.9086 19.4829 12.2904 19.4829C9.15978 19.4829 6.50536 17.3709 5.55295 14.5312H1.5625V17.6222C3.59961 21.6744 7.7488 24.2318 12.286 24.2318Z" fill="#34A853"/>
<path d="M5.5477 14.5312C5.04503 13.0408 5.04503 11.427 5.5477 9.93665V6.8457H1.56166C-0.140344 10.2365 -0.140344 14.2313 1.56166 17.6221L5.5477 14.5312Z" fill="#FBBC04"/>
<path d="M12.286 4.98013C13.9968 4.95367 15.6503 5.59744 16.8893 6.77914L20.3154 3.35309C18.146 1.31597 15.2667 0.196003 12.286 0.231277C7.74879 0.231277 3.59961 2.78869 1.5625 6.84528L5.54854 9.93622C6.49654 7.0922 9.15537 4.98013 12.286 4.98013Z" fill="#EA4335"/>
</g>
<defs>
<clipPath id="clip0_976_23752">
<rect width="24" height="24" fill="white" transform="translate(0.046875 0.230469)"/>
</clipPath>
</defs>
</svg>
